<?xml version="1.0" standalone="no"?>
<!DOCTYPE svg PUBLIC "-//W3C//DTD SVG 20010904//EN"
 "http://www.w3.org/TR/2001/REC-SVG-20010904/DTD/svg10.dtd">
<svg version="1.0" xmlns="http://www.w3.org/2000/svg"
 width="3000.000000pt" height="3000.000000pt" viewBox="0 0 3000.000000 3000.000000"
 preserveAspectRatio="xMidYMid meet">
<metadata>
Created by potrace 1.14, written by Peter Selinger 2001-2017
</metadata>
<g transform="translate(0.000000,3000.000000) scale(0.100000,-0.100000)"
fill="#000000" stroke="none">
<path d="M0 15000 l0 -15000 15000 0 15000 0 0 15000 0 15000 -15000 0 -15000
0 0 -15000z m15820 13785 c178 -16 260 -29 463 -74 73 -16 155 -32 182 -36 28
-3 94 -15 147 -26 53 -10 114 -19 135 -19 50 0 170 -30 682 -171 41 -11 118
-42 171 -69 54 -27 127 -58 163 -70 36 -12 107 -46 158 -77 50 -31 124 -68
163 -83 114 -45 460 -224 533 -277 38 -26 86 -61 108 -76 22 -15 64 -47 94
-71 30 -25 77 -57 105 -72 106 -56 372 -262 521 -404 39 -36 88 -79 110 -95
69 -51 124 -103 355 -340 124 -127 254 -268 290 -314 36 -46 97 -121 135 -166
155 -182 243 -293 269 -340 30 -53 123 -200 241 -380 40 -60 78 -121 85 -135
7 -14 39 -66 72 -116 32 -51 76 -136 97 -190 22 -55 56 -135 76 -179 20 -44
53 -125 72 -179 19 -55 55 -140 80 -190 25 -50 65 -152 89 -228 24 -75 63
-185 88 -245 47 -112 77 -238 96 -410 5 -51 17 -121 25 -155 8 -35 17 -85 20
-113 4 -27 15 -93 25 -145 10 -52 23 -156 30 -230 6 -74 13 -141 15 -148 12
-35 24 -522 26 -1037 2 -526 1 -573 -15 -612 -11 -26 -31 -51 -51 -63 l-34
-21 -1926 1 c-1410 0 -1943 -3 -1992 -11 -114 -20 -197 11 -239 91 -18 33 -19
61 -16 440 3 309 0 448 -12 585 -23 253 -25 273 -41 336 -8 31 -24 108 -35
170 -22 132 -48 210 -119 366 -28 62 -51 116 -51 120 -2 56 -481 611 -615 712
-120 91 -257 171 -375 219 -69 28 -159 69 -200 91 -72 38 -218 80 -335 96 -27
4 -90 17 -140 28 -88 20 -122 21 -1465 26 -756 3 -1390 2 -1408 -2 -47 -12
-111 -73 -138 -132 l-24 -50 0 -900 c0 -970 1 -995 55 -1289 39 -207 52 -252
99 -341 24 -44 60 -123 81 -175 73 -186 174 -334 322 -475 53 -49 155 -146
227 -215 125 -119 141 -130 316 -229 102 -57 221 -127 265 -156 44 -29 116
-71 160 -94 44 -23 117 -68 163 -101 46 -33 109 -73 140 -89 165 -82 353 -187
399 -222 29 -21 54 -39 57 -39 9 0 165 -99 221 -140 31 -23 87 -56 123 -73 37
-17 95 -48 129 -69 35 -21 100 -56 145 -79 82 -41 174 -98 399 -249 64 -43
156 -98 205 -123 113 -56 272 -144 349 -193 33 -22 98 -62 145 -89 95 -56 175
-109 205 -136 11 -10 67 -42 125 -72 192 -99 331 -175 363 -200 18 -13 84 -55
147 -92 63 -38 142 -89 175 -113 33 -24 94 -61 136 -82 42 -21 95 -50 119 -65
24 -15 80 -45 124 -67 94 -47 272 -158 389 -242 45 -33 129 -84 187 -114 111
-57 335 -189 385 -227 17 -12 75 -52 130 -89 55 -38 114 -80 130 -96 17 -15
104 -83 195 -151 115 -85 218 -174 340 -293 96 -93 226 -220 289 -281 63 -60
131 -133 152 -161 44 -60 135 -168 234 -278 39 -43 90 -106 115 -141 25 -34
64 -89 88 -121 54 -73 139 -207 189 -298 21 -38 65 -110 99 -160 33 -51 80
-127 104 -171 24 -44 58 -100 75 -125 45 -62 68 -111 103 -215 16 -50 50 -131
74 -180 24 -50 56 -128 71 -175 14 -47 48 -130 75 -185 27 -56 66 -155 87
-220 21 -66 58 -167 82 -225 49 -114 75 -220 99 -400 8 -63 21 -142 29 -176 8
-34 17 -83 21 -110 3 -27 12 -83 20 -124 8 -41 26 -176 41 -300 l27 -225 2
-2685 c2 -1477 6 -2709 9 -2737 13 -131 55 -194 403 -614 103 -124 290 -283
564 -480 65 -47 138 -135 138 -167 0 -11 -10 -28 -22 -36 -20 -14 -436 -16
-4208 -16 l-4185 0 -250 25 c-137 13 -351 34 -475 45 -284 26 -424 51 -570
102 -103 35 -231 72 -345 99 -49 12 -87 27 -185 72 -41 19 -127 51 -190 72
-63 20 -171 60 -240 90 -69 29 -150 60 -180 70 -67 21 -160 67 -218 107 -23
16 -73 43 -110 60 -37 18 -120 66 -184 107 -113 73 -244 155 -395 244 -69 41
-170 120 -283 222 -30 28 -91 77 -135 110 -169 125 -236 185 -492 438 -164
162 -289 296 -331 352 -36 50 -95 122 -131 161 -132 142 -278 333 -341 449
-19 33 -62 96 -96 140 -152 197 -367 585 -424 763 -12 37 -36 92 -54 122 -52
86 -84 154 -118 248 -16 48 -41 108 -54 134 -38 74 -72 172 -89 252 -8 41 -19
86 -25 101 -6 15 -16 55 -24 89 -7 33 -30 124 -49 201 -20 77 -45 205 -56 285
-26 185 -28 200 -52 349 -11 68 -18 125 -16 128 3 2 -4 36 -14 76 -11 40 -24
115 -29 167 -5 52 -16 151 -25 220 -12 97 -17 259 -21 730 -4 559 -3 609 13
655 13 35 27 55 50 68 31 18 103 18 2072 18 2239 0 2078 4 2118 -58 16 -25 19
-76 24 -593 6 -554 10 -634 44 -810 8 -41 16 -86 19 -100 13 -76 54 -196 93
-274 24 -49 60 -127 79 -174 57 -140 155 -306 236 -397 29 -33 70 -81 91 -108
52 -64 326 -307 407 -361 177 -117 268 -175 298 -190 60 -31 349 -124 434
-140 249 -47 161 -45 1671 -47 l1426 -1 45 26 c57 33 82 66 101 129 22 74 22
1697 0 1892 -24 220 -26 229 -41 280 -8 27 -21 94 -29 148 -16 106 -45 217
-74 282 -10 22 -38 85 -62 140 -51 118 -77 162 -129 219 -20 22 -61 73 -89
111 -90 121 -305 331 -406 396 -49 32 -121 80 -160 106 -38 26 -99 66 -135 88
-36 22 -95 61 -130 86 -36 26 -99 64 -140 84 -41 21 -100 54 -130 73 -30 19
-92 52 -138 73 -45 21 -124 67 -175 102 -50 36 -114 76 -142 90 -27 14 -78 46
-113 71 -34 25 -104 69 -155 97 -50 28 -103 59 -117 69 -14 10 -72 40 -130 67
-58 28 -133 71 -167 96 -34 25 -79 55 -101 66 -21 11 -81 49 -133 84 -52 35
-128 81 -169 102 -41 21 -94 51 -118 67 -23 16 -90 52 -150 79 -59 28 -144 77
-189 110 -45 32 -85 59 -89 59 -4 0 -43 28 -88 61 -44 34 -125 83 -178 110
-54 27 -123 65 -155 85 -31 21 -94 54 -140 75 -45 21 -125 67 -177 101 -315
209 -497 317 -650 388 -48 21 -113 59 -144 83 -31 24 -84 59 -117 77 -33 18
-105 61 -160 97 -164 106 -325 199 -405 234 -41 18 -106 54 -145 81 -38 27
-89 61 -113 76 -24 15 -84 57 -134 93 -49 36 -113 78 -141 94 -28 15 -73 44
-101 64 -28 21 -83 58 -122 83 -74 47 -164 121 -352 287 -59 52 -143 124 -187
162 -284 239 -802 853 -975 1154 -28 50 -70 115 -94 145 -23 30 -52 73 -65 95
-13 22 -52 83 -86 135 -34 52 -72 120 -85 150 -12 30 -43 96 -67 145 -25 50
-63 135 -85 190 -22 55 -66 150 -98 210 -32 61 -68 142 -80 180 -13 39 -45
117 -72 175 -51 108 -73 174 -87 257 -5 26 -25 109 -45 183 -76 284 -108 445
-131 655 -4 33 -13 89 -20 125 -8 36 -16 88 -20 115 -3 28 -14 100 -25 160
-32 183 -51 356 -60 548 -5 100 -10 1291 -10 2647 0 1356 -4 2481 -9 2500 -12
51 -42 107 -96 175 -26 33 -56 77 -67 98 -44 86 -185 262 -262 326 -23 19 -75
67 -117 105 -244 227 -319 283 -497 369 -122 60 -152 81 -152 107 0 18 24 43
50 53 8 3 1941 6 4295 6 3678 1 4303 -1 4445 -14z m-13181 -23754 c70 -14 213
-53 279 -78 l42 -16 0 -388 0 -388 -82 -3 c-46 -2 -99 -2 -119 0 l-35 3 -13
77 c-34 201 -95 347 -178 422 -63 58 -110 74 -208 73 -91 -1 -149 -28 -214
-99 -80 -88 -113 -197 -113 -374 0 -301 83 -443 435 -744 320 -274 459 -493
524 -821 26 -130 26 -523 0 -649 -52 -256 -143 -436 -284 -566 -196 -179 -427
-224 -832 -159 -176 28 -357 76 -371 98 -3 5 -4 192 -2 415 l2 406 114 0 113
0 22 -114 c52 -277 135 -427 270 -490 69 -32 207 -30 275 3 162 80 243 306
215 596 -12 121 -25 177 -64 262 -64 139 -142 230 -340 396 -339 285 -490 516
-552 847 -19 101 -26 382 -12 490 60 481 322 772 733 817 83 9 306 0 395 -16z
m9976 -7 c44 -9 128 -31 188 -50 l107 -35 0 -390 0 -389 -119 0 -118 0 -17 90
c-20 108 -59 237 -93 304 -14 27 -48 72 -77 101 -143 143 -384 97 -480 -93
-48 -94 -60 -157 -60 -302 1 -290 85 -443 389 -704 248 -212 368 -350 458
-528 86 -168 125 -340 134 -585 15 -415 -84 -741 -287 -944 -101 -101 -237
-171 -380 -195 -186 -31 -498 3 -782 87 l-68 20 0 414 0 415 120 0 c118 0 120
0 120 -22 0 -13 9 -66 20 -118 70 -330 182 -473 381 -488 89 -6 165 18 225 71
59 52 88 98 121 194 22 66 27 100 31 218 11 345 -83 533 -392 787 -145 119
-289 264 -355 358 -160 227 -233 482 -230 800 4 506 194 840 550 965 152 54
401 62 614 19z m-2282 2 c71 -17 185 -53 250 -80 l37 -16 0 -388 c0 -214 -2
-391 -4 -393 -2 -2 -54 -3 -114 -1 l-110 3 -16 92 c-46 252 -120 403 -228 463
-45 25 -64 29 -123 28 -297 -2 -482 -422 -523 -1189 -9 -181 -9 -662 1 -835
33 -592 159 -971 357 -1070 102 -52 245 -33 327 43 88 80 128 174 174 398 17
85 31 155 32 156 2 2 176 5 210 4 16 -1 17 -27 17 -409 l0 -409 -112 -36
c-159 -51 -264 -74 -408 -87 -609 -57 -951 259 -1085 1000 -46 253 -58 427
-59 805 0 269 4 386 17 503 65 573 217 965 468 1209 118 113 246 184 392 218
82 19 402 13 500 -9z m14455 8 c434 -89 699 -502 787 -1224 33 -271 41 -700
19 -990 -46 -611 -196 -1046 -445 -1291 -180 -178 -441 -262 -709 -230 -526
64 -812 545 -877 1471 -11 165 -8 653 6 800 50 536 171 910 377 1169 128 160
297 262 499 305 54 11 272 5 343 -10z m-6968 -9 c0 -2 15 -87 34 -187 19 -101
39 -208 45 -238 5 -30 26 -143 46 -250 43 -233 164 -885 254 -1370 211 -1141
223 -1203 261 -1304 25 -65 92 -141 134 -152 25 -6 26 -8 26 -95 l0 -89 -460
0 c-253 0 -463 0 -467 0 -5 0 -8 39 -8 87 l0 87 35 10 c47 14 103 72 119 125
29 99 21 226 -34 561 -20 118 -39 225 -42 238 l-5 22 -361 -2 -361 -3 -18 -80
c-64 -289 -80 -385 -85 -520 -5 -114 -2 -152 11 -198 21 -72 74 -134 121 -143
40 -7 41 -12 37 -113 l-3 -76 -357 2 -357 3 -3 88 -3 88 35 12 c43 16 88 66
125 140 57 115 68 155 255 947 69 292 197 836 286 1210 88 374 188 798 222
943 l61 262 229 0 c125 0 228 -2 228 -5z m-12765 -43 c260 -72 432 -237 513
-492 47 -145 57 -231 56 -480 0 -182 -4 -258 -18 -335 -70 -384 -226 -627
-481 -746 -113 -54 -233 -71 -443 -67 l-183 4 3 -571 c3 -519 5 -575 22 -625
22 -66 78 -124 136 -141 l40 -12 0 -89 0 -88 -437 -1 c-241 0 -446 -2 -455 -4
-16 -3 -18 7 -18 88 l0 92 46 24 c58 31 89 69 111 134 17 49 18 146 21 1457 2
951 -1 1428 -8 1475 -16 104 -44 153 -113 194 l-57 34 0 89 0 89 593 -4 c573
-3 594 -4 672 -25z m3075 -402 l0 -430 -117 0 -118 0 -33 138 c-59 241 -120
350 -220 389 -40 15 -78 18 -267 18 l-220 0 0 -645 0 -645 140 1 c152 0 184 9
224 60 29 37 58 119 79 227 l19 92 97 3 96 3 0 -546 0 -545 -98 0 -97 0 -12
73 c-24 150 -66 247 -126 291 -26 19 -42 21 -175 21 l-147 0 0 -715 0 -715
195 -3 c229 -4 280 4 337 53 86 73 169 294 217 578 l7 37 119 0 c91 0 118 -3
115 -12 -2 -7 -6 -112 -9 -233 -11 -389 -16 -558 -22 -650 l-5 -90 -830 3
-829 2 -1 60 c-1 33 -1 71 -2 85 -1 19 11 32 59 63 78 50 102 103 114 241 11
140 12 2635 0 2763 -13 153 -45 214 -132 259 l-38 19 0 90 0 90 840 0 840 0 0
-430z m6424 60 c73 -201 213 -585 311 -855 171 -472 386 -1101 435 -1272 16
-54 29 -83 38 -83 12 0 13 23 8 138 -3 75 -8 517 -11 982 -6 966 -8 1056 -29
1125 -18 59 -57 105 -115 134 l-41 21 0 90 0 90 320 0 320 0 0 -89 0 -89 -44
-26 c-58 -34 -92 -75 -113 -139 -17 -49 -18 -153 -21 -1689 l-2 -1637 -211 -3
c-116 -2 -214 -1 -219 2 -11 7 -806 2195 -910 2504 -48 142 -90 254 -94 248
-4 -6 -4 -24 -1 -39 3 -15 8 -460 11 -988 2 -528 6 -1043 8 -1145 6 -258 30
-327 130 -380 25 -14 47 -31 48 -38 2 -8 2 -47 0 -88 l-4 -74 -309 0 c-170 0
-312 -1 -316 -2 -5 -2 -9 38 -11 88 l-3 91 32 13 c75 31 119 93 138 191 7 36
10 525 8 1484 -2 1342 -3 1433 -20 1474 -25 64 -59 104 -111 132 l-46 24 0 88
0 87 346 -2 346 -3 132 -365z m6454 -102 c-3 -443 -4 -473 -20 -472 -10 1 -62
2 -117 3 l-98 1 -22 118 c-45 242 -87 362 -150 434 -46 52 -98 69 -222 71
l-104 2 -3 -1390 c-1 -845 2 -1435 8 -1504 14 -171 47 -228 155 -272 l40 -17
0 -86 c0 -47 -3 -86 -7 -86 -5 0 -215 0 -468 0 l-460 0 0 90 c0 67 3 90 13 90
32 0 118 54 138 86 55 90 53 14 56 1600 2 803 1 1468 -3 1477 -9 24 -196 16
-256 -11 -108 -47 -172 -189 -224 -497 l-18 -105 -118 0 -118 0 0 470 0 470
1000 0 1000 0 -2 -472z m1682 384 l0 -88 -50 -29 c-28 -16 -62 -46 -75 -65
-55 -80 -55 -56 -55 -1566 0 -962 3 -1409 11 -1449 19 -102 62 -163 138 -194
l31 -13 0 -92 0 -91 -437 2 c-241 2 -441 3 -445 3 -5 0 -8 39 -8 88 l0 87 46
24 c59 32 90 70 111 139 17 53 18 151 18 1497 0 1351 -1 1444 -18 1497 -19 64
-62 114 -120 142 l-37 17 0 89 0 90 445 0 445 0 0 -88z m4478 61 c5 -16 149
-413 320 -883 311 -857 452 -1262 532 -1527 30 -100 48 -143 58 -143 12 0 14
14 9 88 -4 48 -9 474 -12 947 -6 1031 -9 1133 -30 1203 -19 61 -63 115 -117
143 l-38 19 0 90 0 90 320 0 320 0 0 -89 0 -89 -44 -26 c-58 -34 -92 -75 -113
-139 -17 -49 -18 -153 -21 -1682 -1 -896 -4 -1634 -6 -1640 -2 -6 -82 -9 -218
-7 l-215 3 -404 1107 c-221 609 -444 1227 -494 1374 -50 147 -94 271 -99 275
-5 4 -6 -32 -2 -82 3 -49 8 -522 11 -1050 3 -528 7 -1023 9 -1100 7 -208 33
-274 130 -326 l46 -24 0 -87 c0 -51 -4 -88 -10 -89 -5 -1 -19 -1 -30 -1 -11 0
-150 0 -310 1 l-290 1 0 88 0 87 46 24 c59 32 90 70 111 139 17 53 18 151 18
1497 0 1383 -1 1442 -19 1497 -21 64 -64 115 -120 142 l-36 17 0 89 0 90 344
0 344 0 10 -27z"/>
<path d="M24500 4728 c-46 -13 -129 -70 -161 -110 -118 -151 -188 -406 -223
-808 -17 -194 -21 -305 -21 -600 0 -970 127 -1480 395 -1581 66 -25 154 -22
216 7 127 60 239 278 292 569 29 158 31 169 41 290 32 362 34 844 5 1220 -51
657 -208 1011 -453 1020 -31 2 -72 -2 -91 -7z"/>
<path d="M17422 4223 c-6 -32 -68 -310 -137 -618 -69 -308 -138 -617 -154
-687 l-28 -128 304 0 305 0 -6 28 c-8 37 -173 957 -231 1292 -15 85 -31 158
-34 163 -4 4 -12 -19 -19 -50z"/>
<path d="M4563 4693 l-63 -4 0 -759 0 -760 68 0 c179 1 297 36 370 109 121
121 174 344 167 711 -7 382 -80 588 -238 665 -50 24 -164 47 -217 43 -14 -1
-53 -3 -87 -5z"/>
</g>
</svg>
